<svg width="98" height="96" viewBox="0 0 98 96" fill="none" xmlns="http://www.w3.org/2000/svg">
<path d="M46.5501 25.5007C69.7301 23.1407 82.0101 50.7207 64.1901 65.3507C51.6301 75.6607 31.6301 69.4407 27.4601 53.6807C24.0101 40.6607 33.0401 26.8707 46.5501 25.5007Z" fill="#FFF0BE"/>
<path d="M47.2901 5.79024C55.4701 5.36024 66.8401 7.82024 73.3801 13.0002C74.8201 14.1402 74.6801 15.5702 72.7301 15.4102C51.9701 0.500241 22.4001 9.13024 12.7901 32.6802C5.23014 51.2002 12.4801 72.4502 29.7101 82.3802C30.9401 83.0902 37.1301 85.6002 37.3901 85.9302C38.1501 86.9202 37.6801 87.9602 36.2701 87.8102C32.5001 87.4202 24.0301 81.6302 21.1401 78.9702C-6.22986 53.7602 10.2101 7.74024 47.3001 5.79024H47.2901Z" fill="#FFF0BE"/>
<path d="M77.4401 19.29C77.2701 19.06 76.9201 19.1 76.8401 18.51C76.7201 17.6 77.2601 16.6 78.2801 17.06C78.5501 17.18 81.5001 20.21 81.9101 20.68C85.5101 24.83 88.5701 30.68 90.0801 35.97C91.7801 41.92 91.9101 52.63 90.3901 58.62C85.1501 79.32 64.3501 92.72 43.2501 89.53C42.2801 89.38 40.0301 89.28 40.1501 87.98C40.1801 87.64 40.6701 86.95 41.0201 86.85C41.6401 86.68 44.6801 87.5 45.7001 87.58C79.2801 89.96 101.44 54.2 82.8301 25.75C81.2101 23.27 79.1101 21.53 77.4301 19.3L77.4401 19.29Z" fill="#FFF0BE"/>
<path d="M23.3901 60.3706C24.2501 60.4806 26.5901 60.0206 26.9701 60.9306C28.0101 63.4606 23.7601 62.3806 22.5101 62.6106C21.0201 62.8906 20.8401 66.9106 22.3801 67.7506C22.6701 67.9806 22.8101 67.7106 23.0101 67.6206C24.3201 67.0606 27.2101 64.8006 28.3001 64.6406C29.2201 64.5006 29.9201 65.7606 29.2201 66.5806C28.9501 66.8906 23.8801 69.9206 23.3001 70.1506C21.8601 70.7106 21.5201 70.1806 20.6301 69.2106C18.6901 67.1106 18.5001 64.9406 19.6201 62.3606C18.6501 62.0206 16.2301 62.4906 15.9201 61.4306C15.1101 58.6806 19.7801 60.4106 20.6201 60.0006C21.6301 59.5106 21.9301 56.1006 23.4901 56.1006C26.1701 56.1006 23.1001 60.1206 23.3701 60.3706H23.3901Z" fill="#FFF0BE"/>
<path d="M18.9202 34.6305C19.0802 34.8905 23.5202 36.8205 24.2602 37.6505C25.1402 38.6305 24.3502 39.8805 23.0702 39.6105C21.4002 38.2605 18.4602 37.3105 16.9002 36.0305C15.5302 34.9005 17.3402 30.6905 19.0702 30.2405C21.7002 29.5605 23.2302 31.6905 25.2002 32.4805C26.1602 32.8705 26.2602 32.1805 26.0802 31.3605C25.7902 30.0505 21.3602 26.5905 21.6702 25.3705C21.8102 24.8205 22.6102 24.3205 23.2002 24.4805C23.5702 24.5805 27.9802 29.7305 28.1802 30.2505C28.9002 32.1605 28.1502 34.8405 25.7602 34.8805C23.9102 34.9105 21.2102 32.3005 20.0202 32.4105C19.3702 32.4705 18.6402 34.1805 18.9202 34.6405V34.6305Z" fill="#FFF0BE"/>
<path d="M79.5401 34.6707C79.3902 34.8207 81.3001 38.6107 78.4601 37.6207C77.5401 37.3007 77.8402 35.0207 76.4402 36.9307C75.9702 37.5707 74.7201 40.7007 73.6801 38.4007C72.9401 36.7707 75.5502 35.0207 75.9402 34.1607C76.1702 33.6607 75.2302 32.0307 74.9102 31.9607C74.5702 31.8807 68.8701 33.5407 69.6001 30.8507C70.0601 29.1807 72.3802 30.6407 73.5502 29.9207C73.6002 29.1707 72.9901 28.8607 73.0201 28.0507C73.0601 27.1107 73.9701 26.5507 74.7901 27.0507C75.2201 27.3107 75.4102 28.6007 75.9002 28.4107C77.1802 27.8407 77.0401 25.1707 78.8501 25.7207C81.2801 26.4507 77.0201 30.4307 77.0301 30.7907C77.0301 31.1107 77.9701 32.6407 78.3901 32.6607C79.2201 32.6907 83.6201 31.1707 83.5201 33.5507C83.4501 35.2807 80.5501 34.2607 79.5301 34.6707H79.5401Z" fill="#FFF0BE"/>
<path d="M60.7802 74.6305C59.9702 74.4305 58.7702 75.0205 58.5702 73.9605C58.2202 72.1405 60.4702 72.5205 61.8602 72.0105C62.4502 71.8005 63.6302 71.1705 64.1402 70.8005C65.0502 70.1405 67.2502 66.4605 68.0102 69.0305C68.3602 70.2105 67.2602 70.4605 67.3402 70.9305C67.3802 71.1605 69.5002 74.7405 69.7202 74.8105C70.5302 75.0605 72.0502 74.4805 71.8102 76.2105C71.6502 77.4005 70.3602 76.9805 69.5402 77.2105C68.2402 77.5805 67.1002 78.1005 66.0602 78.9705C65.1802 79.7005 63.7002 82.4405 62.5502 80.9905C61.7302 79.9605 63.0702 78.9605 62.9702 78.5805C62.7202 77.5905 61.0002 75.8605 60.7902 74.6405L60.7802 74.6305ZM65.8102 72.6005L63.1102 74.2205L64.7302 76.8305L67.3102 75.5905L65.8102 72.6005Z" fill="#FFF0BE"/>
<path d="M79.5603 61.6001C79.7603 61.7501 80.5203 61.3501 80.9103 61.3601C81.6203 61.3901 83.7603 62.0302 83.8103 62.7302C84.0303 65.5602 80.0403 62.4702 78.9803 64.9102C78.0603 67.0302 80.0903 67.3802 80.2903 68.4802C80.6503 70.5002 78.6303 70.0501 77.6303 69.0101C77.1503 68.5101 76.6303 66.9301 76.5303 66.8501C76.3903 66.7401 74.6103 67.3902 73.0103 66.5101C67.8103 63.6602 72.3503 55.7001 77.3803 58.6501C78.6803 59.4101 79.4003 61.4801 79.5603 61.5901V61.6001ZM74.7303 60.4102C71.6703 61.0502 73.1303 66.0402 76.1103 64.5502C78.4403 63.3802 77.0803 59.9202 74.7303 60.4102Z" fill="#FFF0BE"/>
<path d="M55.5401 11.7403C56.2601 12.8903 54.6201 14.0403 54.5801 14.8403C54.5401 15.5103 55.4401 17.1803 55.5601 18.0903C55.7501 19.5703 55.8001 21.0703 54.5901 22.0703C51.8001 24.3903 48.6701 21.2703 50.5901 20.3103C51.8901 19.6603 53.7601 21.9503 53.2201 18.4303C52.9601 16.7403 52.6801 15.3103 50.7101 15.7003C49.3601 15.9603 48.3501 22.4903 46.2301 20.1803C46.0001 19.9303 43.8201 15.6103 43.7101 15.2103C43.4701 14.3003 43.6101 13.4303 44.7201 13.4303C46.1901 13.4303 46.2401 16.0303 47.3401 16.7003C47.5901 15.9303 48.3901 13.9003 49.0901 13.5803C50.0001 13.1703 51.4701 13.6903 52.4101 13.4003C53.3501 13.1103 53.1301 11.4103 54.6801 11.4703C54.8601 11.4703 55.4801 11.6403 55.5401 11.7403Z" fill="#FFF0BE"/>
<path d="M38.1802 77.1607C37.9502 77.3907 37.6302 78.9307 37.0002 79.6007C33.8102 82.9807 27.5102 79.4707 29.3202 74.6707C30.0902 72.6207 34.1902 71.0907 34.3502 70.2007C34.5002 69.3807 32.2302 69.3307 32.4102 68.0507C32.6802 66.0407 36.0202 67.5407 36.5102 69.1007C37.8302 73.2907 31.4802 73.5607 31.3602 76.2307C31.2902 77.9907 33.3002 79.1207 34.8102 78.4107C36.4202 77.6507 35.8502 72.4507 38.9502 74.8907C40.7902 76.3407 38.6002 76.7407 38.1802 77.1707V77.1607Z" fill="#FFF0BE"/>
<path d="M36.5503 14.2606C36.6803 14.3906 38.3203 17.2406 38.4203 17.5006C38.7403 18.4206 38.6903 19.4906 37.5103 19.4306C36.6603 19.3906 36.2003 18.0906 35.8703 18.4306C35.7903 18.5206 35.3503 20.6606 35.3703 20.8006C35.4403 21.4606 36.4303 21.6006 36.0803 22.7506C35.8203 23.6006 34.8203 23.2606 34.6003 23.5706C33.9303 24.5106 34.2403 28.6006 32.0503 27.8806C30.4503 27.3506 32.4803 23.8406 32.3903 22.8206C32.3703 22.5606 31.3703 22.6506 31.3903 21.5706C31.4203 20.1506 32.7503 20.6806 33.0903 20.3806C33.1903 20.2906 33.7403 17.8006 33.6303 17.6806C32.3703 18.2306 30.8603 18.0406 31.4103 16.3506C31.4803 16.1306 34.7203 14.1606 35.1203 14.0406C35.5703 13.9006 36.2003 13.9006 36.5603 14.2506L36.5503 14.2606Z" fill="#FFF0BE"/>
<path d="M76.6101 46.9499C77.8001 45.7599 84.2701 48.1799 83.2401 44.8199C82.8901 43.6999 80.3601 44.4399 81.0701 42.3099C81.5001 41.0199 84.5901 42.3799 85.2401 43.5599C86.5501 45.9199 84.9301 46.4499 84.8201 47.8099C84.7901 48.1699 85.2701 48.4999 85.4001 48.8899C85.8401 50.2399 85.7601 51.4299 84.8901 52.6199C83.6701 54.2799 79.9401 54.5499 81.1601 52.1299C81.5901 51.2799 83.2201 52.1099 83.3101 50.5099C83.4801 47.3599 76.8201 50.0299 76.3301 48.2099C76.2401 47.8599 76.3601 47.1999 76.6101 46.9499Z" fill="#FFF0BE"/>
<path d="M49.8 73.1598C51.14 73.1098 55.5 73.7898 54.46 75.8498C53.83 77.1198 52.24 75.7398 51.45 75.6098C50.31 75.4298 46.68 75.4798 46.83 77.2098C46.91 78.0898 48.12 77.6398 48.48 78.3298C49.49 80.2798 46.41 80.8098 45 78.8198C42.73 75.6098 46.9 73.2598 49.8 73.1598Z" fill="#FFF0BE"/>
<path d="M16.5801 41.9406C18.5801 41.3506 18.4901 44.9706 18.0301 45.8906C17.6901 46.5806 15.0201 46.7006 15.7801 48.3806C16.2601 49.4406 17.8101 48.8306 18.1001 49.8106C18.2901 50.4406 18.2801 53.2706 17.8001 53.6506C15.8501 55.2106 16.0301 51.8106 15.7801 51.3806C15.6201 51.1106 14.4601 50.5006 14.0501 49.8706C13.2501 48.6506 13.2101 47.3206 13.9501 46.0506C14.3501 45.3606 15.7801 44.5106 15.8701 44.2306C16.1001 43.5306 15.5401 42.2506 16.5901 41.9406H16.5801Z" fill="#FFF0BE"/>
<path d="M51.2503 77.8803C54.3203 76.8103 56.9703 82.3903 52.2503 84.1203C50.6703 84.7003 44.2903 84.9903 44.6303 82.5103C44.8903 80.5803 47.0603 82.1703 47.9803 82.3103C49.0003 82.4703 52.2003 82.3103 52.5403 81.1603C52.9003 79.9403 51.8403 80.2503 51.1903 79.8403C50.4003 79.3403 50.4403 78.1503 51.2403 77.8703L51.2503 77.8803Z" fill="#FFF0BE"/>
<path d="M64.3501 16.9007C64.6401 17.1507 66.8401 16.6607 67.6401 17.1707C68.0601 17.4407 68.3401 19.0307 68.8001 19.3107C69.3501 19.6507 73.5701 18.9307 72.0701 21.2607C71.7801 21.7007 68.0801 22.0607 67.5601 21.8007C66.8901 21.4707 66.5501 19.6007 66.0701 19.2907C65.5901 18.9807 64.4901 19.5607 63.7101 19.4307C62.8901 19.2907 60.1401 14.7207 62.2601 14.4807C64.0601 14.2807 63.8601 16.4607 64.3601 16.8907L64.3501 16.9007Z" fill="#FFF0BE"/>
<path d="M65.25 21.5C65.65 21.88 65.91 23.5 66.56 23.82C66.92 24 68.25 23.42 69.25 23.85C69.98 24.16 70.04 25.62 69.13 25.88C68.7 26 65.63 26.25 65.23 26.13C64.39 25.87 64.02 23.88 63.77 23.72C62.64 23.01 61.46 24.95 59.89 22.23C59.35 21.29 58.24 19.42 59.58 18.81C61.24 18.05 61.53 20.95 62.06 21.32C62.71 21.77 64.39 20.67 65.25 21.5Z" fill="#FFF0BE"/>
<path d="M20.8901 42.0302C21.1701 41.0502 23.1401 41.3702 23.1401 42.2802V53.2602C23.1401 54.0502 20.8901 54.0502 20.8901 53.2602V42.0302Z" fill="#FFF0BE"/>
<path d="M58.62 53.4903C58.16 54.0003 56.07 55.5003 56.06 56.0903L58.69 62.0804C58 61.9704 56.18 62.3304 55.75 61.8904L53.51 56.8304C51.03 57.7604 48.36 57.5504 45.86 56.8004C43.92 59.1204 44.41 62.9903 40.26 62.0903L49.38 43.4203C49.75 43.3403 49.78 43.5203 49.94 43.7703C50.81 45.1703 52.29 48.8603 52.92 50.5203C53.07 50.9103 53.26 51.2904 53.23 51.7304C52.72 51.5504 51.34 52.1304 51.02 51.9104C50.93 51.8504 50.76 50.8604 50.63 50.5704C50.45 50.1604 49.83 48.6404 49.28 48.8904C48.86 49.0804 47.37 53.7404 46.96 54.4704C49.43 55.6704 53.04 54.7903 55.14 53.1404C60.41 49.0204 60.89 41.2404 55.23 37.2304C47.45 31.7304 37.63 40.3003 41.17 48.8803C41.77 50.3203 43.48 51.7004 41.88 53.2504C41.09 54.0204 40.54 52.8504 40.09 52.1904C33.52 42.5504 42.95 29.5804 54.29 33.9104C56.95 34.9304 59.35 37.2904 60.52 39.8704C62.35 43.9304 61.64 50.1504 58.62 53.4704V53.4903Z" fill="black"/>
</svg>
