<svg width="36" height="33" viewBox="0 0 36 33" fill="none" xmlns="http://www.w3.org/2000/svg">
<g filter="url(#filter0_d_284_669)">
<path d="M10.6667 13.6429H10.6815H10.6667ZM17.3333 13.6429H17.3481H17.3333ZM24 13.6429H24.0148H24ZM14.2222 24.8286L16.3852 27.3315C16.7068 27.7037 16.8677 27.8897 17.0649 27.9563C17.2375 28.0146 17.4292 28.0146 17.6018 27.9563C17.799 27.8897 17.9599 27.7037 18.2815 27.3315L20.4444 24.8286C20.8787 24.326 21.0959 24.0747 21.3607 23.8829C21.7139 23.6272 22.1308 23.4462 22.5785 23.3545C22.9142 23.2857 23.2761 23.2857 24 23.2857C26.0708 23.2857 27.1062 23.2857 27.9231 22.992C29.012 22.6007 29.8773 21.8497 30.3283 20.9047C30.6667 20.1957 30.6667 19.2972 30.6667 17.5V10.1714C30.6667 8.01122 30.6667 6.93112 30.1822 6.10604C29.7561 5.38026 29.0763 4.7902 28.24 4.4204C27.2892 4 26.0447 4 23.5556 4H11.1111C8.62199 4 7.37742 4 6.42671 4.4204C5.59043 4.7902 4.91052 5.38026 4.48441 6.10604C4 6.93112 4 8.01122 4 10.1714V17.5C4 19.2972 4 20.1957 4.33831 20.9047C4.78939 21.8497 5.65462 22.6007 6.74363 22.992C7.56039 23.2857 8.59582 23.2857 10.6667 23.2857C11.3905 23.2857 11.7524 23.2857 12.0882 23.3545C12.5358 23.4462 12.9528 23.6272 13.3059 23.8829C13.5708 24.0747 13.7879 24.326 14.2222 24.8286ZM11.4074 13.6429C11.4074 13.9978 11.0758 14.2857 10.6667 14.2857C10.2576 14.2857 9.92593 13.9978 9.92593 13.6429C9.92593 13.2879 10.2576 13 10.6667 13C11.0758 13 11.4074 13.2879 11.4074 13.6429ZM18.0741 13.6429C18.0741 13.9978 17.7424 14.2857 17.3333 14.2857C16.9243 14.2857 16.5926 13.9978 16.5926 13.6429C16.5926 13.2879 16.9243 13 17.3333 13C17.7424 13 18.0741 13.2879 18.0741 13.6429ZM24.7407 13.6429C24.7407 13.9978 24.409 14.2857 24 14.2857C23.591 14.2857 23.2593 13.9978 23.2593 13.6429C23.2593 13.2879 23.591 13 24 13C24.409 13 24.7407 13.2879 24.7407 13.6429Z" fill="white"/>
</g>
<defs>
<filter id="filter0_d_284_669" x="0.5" y="0.5" width="34.6667" height="32" filterUnits="userSpaceOnUse" color-interpolation-filters="sRGB">
<feFlood flood-opacity="0" result="BackgroundImageFix"/>
<feColorMatrix in="SourceAlpha" type="matrix" values="0 0 0 0 0 0 0 0 0 0 0 0 0 0 0 0 0 0 127 0" result="hardAlpha"/>
<feOffset dx="0.5" dy="0.5"/>
<feGaussianBlur stdDeviation="2"/>
<feComposite in2="hardAlpha" operator="out"/>
<feColorMatrix type="matrix" values="0 0 0 0 0 0 0 0 0 0 0 0 0 0 0 0 0 0 0.3 0"/>
<feBlend mode="normal" in2="BackgroundImageFix" result="effect1_dropShadow_284_669"/>
<feBlend mode="normal" in="SourceGraphic" in2="effect1_dropShadow_284_669" result="shape"/>
</filter>
</defs>
</svg>
