<svg width="20" height="21" viewBox="0 0 20 21" fill="none" xmlns="http://www.w3.org/2000/svg">
<path d="M6 15.7332H14M9.0177 1.49715L2.23539 6.77227C1.78202 7.1249 1.55534 7.30122 1.39203 7.52202C1.24737 7.7176 1.1396 7.93793 1.07403 8.1722C1 8.43667 1 8.72385 1 9.29825V16.5332C1 17.6533 1 18.2133 1.21799 18.6412C1.40973 19.0175 1.71569 19.3235 2.09202 19.5152C2.51984 19.7332 3.07989 19.7332 4.2 19.7332H15.8C16.9201 19.7332 17.4802 19.7332 17.908 19.5152C18.2843 19.3235 18.5903 19.0175 18.782 18.6412C19 18.2133 19 17.6533 19 16.5332V9.29825C19 8.72385 19 8.43667 18.926 8.1722C18.8604 7.93793 18.7526 7.7176 18.608 7.52202C18.4447 7.30122 18.218 7.12491 17.7646 6.77229L10.9823 1.49715C10.631 1.2239 10.4553 1.08727 10.2613 1.03475C10.0902 0.988415 9.9098 0.988415 9.7387 1.03475C9.5447 1.08727 9.369 1.2239 9.0177 1.49715Z" stroke="white" stroke-linecap="round" stroke-linejoin="round"/>
</svg>
