<svg width="36" height="36" viewBox="0 0 36 36" fill="none" xmlns="http://www.w3.org/2000/svg">
<path d="M29.1348 20.5678C28.6803 20.5678 28.2444 20.7484 27.923 21.07C27.6016 21.3916 27.421 21.8277 27.421 22.2825V22.934L24.8846 20.3963C23.989 19.5073 22.7785 19.0085 21.5169 19.0085C20.2553 19.0085 19.0449 19.5073 18.1493 20.3963L16.9496 21.5966L12.6994 17.3441C11.7912 16.4793 10.5855 15.9969 9.33171 15.9969C8.07794 15.9969 6.87218 16.4793 5.96407 17.3441L3.42762 19.8819V10.2796C3.42762 9.82484 3.60819 9.3887 3.92959 9.06714C4.25099 8.74557 4.68691 8.56491 5.14144 8.56491H17.1381C17.5927 8.56491 18.0286 8.38426 18.35 8.06269C18.6714 7.74112 18.8519 7.30499 18.8519 6.85022C18.8519 6.39546 18.6714 5.95932 18.35 5.63775C18.0286 5.31618 17.5927 5.13553 17.1381 5.13553H5.14144C3.77784 5.13553 2.4701 5.67749 1.50589 6.64219C0.541686 7.6069 0 8.91531 0 10.2796V30.8559C0 32.2202 0.541686 33.5286 1.50589 34.4933C2.4701 35.458 3.77784 36 5.14144 36H25.7072C27.0708 36 28.3785 35.458 29.3427 34.4933C30.3069 33.5286 30.8486 32.2202 30.8486 30.8559V22.2825C30.8486 21.8277 30.6681 21.3916 30.3467 21.07C30.0253 20.7484 29.5893 20.5678 29.1348 20.5678ZM5.14144 32.5706C4.68691 32.5706 4.25099 32.39 3.92959 32.0684C3.60819 31.7468 3.42762 31.3107 3.42762 30.8559V24.7345L8.39768 19.7619C8.64946 19.5218 8.98392 19.3879 9.33171 19.3879C9.6795 19.3879 10.014 19.5218 10.2657 19.7619L15.6985 25.1974L23.0679 32.5706H5.14144ZM27.421 30.8559C27.4185 31.1842 27.3104 31.5029 27.1125 31.7647L19.3832 23.9971L20.5829 22.7969C20.7058 22.6714 20.8524 22.5717 21.0143 22.5037C21.1761 22.4356 21.3499 22.4006 21.5255 22.4006C21.701 22.4006 21.8748 22.4356 22.0367 22.5037C22.1986 22.5717 22.3452 22.6714 22.4681 22.7969L27.421 27.7866V30.8559ZM35.4931 5.63279L30.3516 0.48871C30.1886 0.332604 29.9964 0.210235 29.7861 0.128625C29.3688 -0.042875 28.9008 -0.042875 28.4836 0.128625C28.2732 0.210235 28.081 0.332604 27.918 0.48871L22.7766 5.63279C22.6168 5.79266 22.49 5.98246 22.4035 6.19135C22.3171 6.40024 22.2726 6.62412 22.2726 6.85022C22.2726 7.30685 22.4538 7.74477 22.7766 8.06765C23.0993 8.39054 23.537 8.57193 23.9934 8.57193C24.4498 8.57193 24.8875 8.39054 25.2102 8.06765L27.421 5.83855V15.4237C27.421 15.8784 27.6016 16.3146 27.923 16.6362C28.2444 16.9577 28.6803 17.1384 29.1348 17.1384C29.5893 17.1384 30.0253 16.9577 30.3467 16.6362C30.6681 16.3146 30.8486 15.8784 30.8486 15.4237V5.83855L33.0594 8.06765C33.2188 8.22837 33.4083 8.35593 33.6172 8.44298C33.826 8.53004 34.05 8.57486 34.2762 8.57486C34.5025 8.57486 34.7265 8.53004 34.9353 8.44298C35.1442 8.35593 35.3337 8.22837 35.4931 8.06765C35.6537 7.90825 35.7812 7.7186 35.8682 7.50965C35.9552 7.3007 36 7.07658 36 6.85022C36 6.62386 35.9552 6.39974 35.8682 6.19079C35.7812 5.98184 35.6537 5.79219 35.4931 5.63279Z" fill="#97979B" fill-opacity="0.38"/>
</svg>
