<svg width="21" height="19" viewBox="0 0 21 19" fill="none" xmlns="http://www.w3.org/2000/svg">
<path d="M6.60802 7.5H10.608M6.60802 11H13.608M11.108 18C15.8024 18 19.608 14.1944 19.608 9.5C19.608 4.80558 15.8024 1 11.108 1C6.4136 1 2.60802 4.80558 2.60802 9.5C2.60802 10.45 2.76387 11.3636 3.0514 12.2166C3.15959 12.5376 3.21369 12.6981 3.22345 12.8214C3.23309 12.9432 3.2258 13.0286 3.19568 13.1469C3.16517 13.2668 3.09782 13.3915 2.96312 13.6408L1.32746 16.6684C1.09415 17.1002 0.977492 17.3161 1.0036 17.4828C1.02634 17.6279 1.11177 17.7557 1.2372 17.8322C1.3812 17.9201 1.62532 17.8948 2.11357 17.8444L7.23459 17.315C7.38967 17.299 7.46721 17.291 7.53789 17.2937C7.6074 17.2963 7.65647 17.3029 7.72426 17.3185C7.79318 17.3344 7.87985 17.3678 8.05318 17.4345C9.0012 17.7998 10.0312 18 11.108 18Z" stroke="#F8F6A9" stroke-width="1.5" stroke-linecap="round" stroke-linejoin="round"/>
</svg>
