<svg width="16" height="16" viewBox="0 0 16 16" fill="none" xmlns="http://www.w3.org/2000/svg">
<path d="M5.1014 5.73955C5.62511 6.83036 6.33907 7.85267 7.24316 8.75683C8.14733 9.661 9.16971 10.3749 10.2605 10.8987C10.3543 10.9437 10.4012 10.9662 10.4606 10.9835C10.6716 11.045 10.9306 11.0008 11.1092 10.8729C11.1595 10.8369 11.2025 10.7939 11.2885 10.7079C11.5516 10.4448 11.6831 10.3132 11.8154 10.2273C12.3142 9.90299 12.9573 9.90299 13.4561 10.2273C13.5884 10.3132 13.7199 10.4448 13.9829 10.7079L14.1295 10.8545C14.5295 11.2544 14.7294 11.4544 14.838 11.6691C15.054 12.0961 15.054 12.6005 14.838 13.0276C14.7294 13.2423 14.5295 13.4423 14.1295 13.8422L14.0109 13.9608C13.6124 14.3593 13.4132 14.5586 13.1422 14.7107C12.8416 14.8796 12.3747 15.001 12.0299 15C11.7192 14.9991 11.5068 14.9388 11.0821 14.8183C8.79957 14.1704 6.6457 12.9481 4.84885 11.1512C3.05197 9.35429 1.82961 7.20043 1.18176 4.91792C1.0612 4.49319 1.00092 4.28083 1.00001 3.97009C0.998976 3.6253 1.12039 3.1584 1.28926 2.85778C1.44145 2.58687 1.64071 2.38761 2.03924 1.98908L2.15785 1.87047C2.55774 1.47057 2.7577 1.27062 2.97244 1.16201C3.39951 0.945997 3.90386 0.945997 4.33093 1.16201C4.54567 1.27062 4.74562 1.47057 5.14551 1.87047L5.29215 2.0171C5.55521 2.28016 5.68675 2.4117 5.77274 2.54396C6.09705 3.04277 6.09705 3.68582 5.77274 4.18462C5.68675 4.31688 5.55521 4.44842 5.29215 4.71149C5.20613 4.79751 5.16312 4.84051 5.12712 4.89078C4.9992 5.06944 4.95503 5.32849 5.01652 5.53945C5.03382 5.59881 5.05635 5.64572 5.1014 5.73955Z" stroke="#F8F6A9" stroke-width="1.5" stroke-linecap="round" stroke-linejoin="round"/>
</svg>
