<svg width="12" height="12" viewBox="0 0 12 12" fill="none" xmlns="http://www.w3.org/2000/svg">
<path d="M4.79167 4.47978C4.79167 4.20136 4.79167 4.06216 4.84985 3.98444C4.90055 3.91671 4.97816 3.87434 5.06255 3.86831C5.1594 3.8614 5.27647 3.93667 5.51068 4.08723L8.26437 5.85747C8.4676 5.98808 8.56922 6.05342 8.60428 6.13648C8.63496 6.20905 8.63496 6.29095 8.60428 6.36352C8.56922 6.44658 8.4676 6.51192 8.26437 6.64252L5.51068 8.41277C5.27647 8.56332 5.1594 8.63863 5.06255 8.63169C4.97816 8.62568 4.90055 8.58327 4.84985 8.51555C4.79167 8.43785 4.79167 8.29867 4.79167 8.02024V4.47978Z" fill="black" fill-opacity="0.17"/>
<path d="M1 3.8C1 2.81991 1 2.32986 1.19074 1.95552C1.35852 1.62623 1.62623 1.35852 1.95552 1.19074C2.32986 1 2.81991 1 3.8 1H8.7C9.68012 1 10.1701 1 10.5445 1.19074C10.8738 1.35852 11.1415 1.62623 11.3092 1.95552C11.5 2.32986 11.5 2.81991 11.5 3.8V8.7C11.5 9.68012 11.5 10.1701 11.3092 10.5445C11.1415 10.8738 10.8738 11.1415 10.5445 11.3092C10.1701 11.5 9.68012 11.5 8.7 11.5H3.8C2.81991 11.5 2.32986 11.5 1.95552 11.3092C1.62623 11.1415 1.35852 10.8738 1.19074 10.5445C1 10.1701 1 9.68012 1 8.7V3.8Z" fill="black" fill-opacity="0.17"/>
<path d="M4.79167 4.47978C4.79167 4.20136 4.79167 4.06216 4.84985 3.98444C4.90055 3.91671 4.97816 3.87434 5.06255 3.86831C5.1594 3.8614 5.27647 3.93667 5.51068 4.08723L8.26437 5.85747C8.4676 5.98808 8.56922 6.05342 8.60428 6.13648C8.63496 6.20905 8.63496 6.29095 8.60428 6.36352C8.56922 6.44658 8.4676 6.51192 8.26437 6.64252L5.51068 8.41277C5.27647 8.56332 5.1594 8.63863 5.06255 8.63169C4.97816 8.62568 4.90055 8.58327 4.84985 8.51555C4.79167 8.43785 4.79167 8.29867 4.79167 8.02024V4.47978Z" stroke="white" stroke-linecap="round" stroke-linejoin="round"/>
<path d="M1 3.8C1 2.81991 1 2.32986 1.19074 1.95552C1.35852 1.62623 1.62623 1.35852 1.95552 1.19074C2.32986 1 2.81991 1 3.8 1H8.7C9.68012 1 10.1701 1 10.5445 1.19074C10.8738 1.35852 11.1415 1.62623 11.3092 1.95552C11.5 2.32986 11.5 2.81991 11.5 3.8V8.7C11.5 9.68012 11.5 10.1701 11.3092 10.5445C11.1415 10.8738 10.8738 11.1415 10.5445 11.3092C10.1701 11.5 9.68012 11.5 8.7 11.5H3.8C2.81991 11.5 2.32986 11.5 1.95552 11.3092C1.62623 11.1415 1.35852 10.8738 1.19074 10.5445C1 10.1701 1 9.68012 1 8.7V3.8Z" stroke="white" stroke-linecap="round" stroke-linejoin="round"/>
</svg>
