<svg width="22" height="22" viewBox="0 0 22 22" fill="none" xmlns="http://www.w3.org/2000/svg">
<path d="M9.4995 12.1096L19.9995 1.60955L9.4995 12.1096ZM9.6271 12.4376L12.2552 19.1956C12.4867 19.791 12.6025 20.0886 12.7693 20.1755C12.9139 20.2509 13.0862 20.251 13.2308 20.1758C13.3977 20.0891 13.5139 19.7916 13.7461 19.1965L20.3364 2.30875C20.5461 1.77157 20.6509 1.50298 20.5935 1.33135C20.5437 1.1823 20.4268 1.06533 20.2777 1.01554C20.1061 0.958206 19.8375 1.06302 19.3003 1.27265L2.41258 7.86299C1.8175 8.09522 1.51997 8.21133 1.43326 8.37823C1.35809 8.52292 1.35819 8.6952 1.43353 8.8398C1.52043 9.0066 1.81811 9.1223 2.41345 9.3539L9.1715 11.982C9.2923 12.029 9.3527 12.0525 9.4036 12.0888C9.4487 12.1209 9.4881 12.1604 9.5203 12.2055C9.5566 12.2563 9.5801 12.3168 9.6271 12.4376Z" fill="#F8F6AA"/>
<path d="M9.4995 12.1096L19.9995 1.60955M9.6271 12.4376L12.2552 19.1956C12.4867 19.791 12.6025 20.0886 12.7693 20.1755C12.9139 20.2509 13.0862 20.251 13.2308 20.1758C13.3977 20.0891 13.5139 19.7916 13.7461 19.1965L20.3364 2.30875C20.5461 1.77157 20.6509 1.50298 20.5935 1.33135C20.5437 1.1823 20.4268 1.06533 20.2777 1.01554C20.1061 0.958206 19.8375 1.06302 19.3003 1.27265L2.41258 7.86299C1.8175 8.09522 1.51997 8.21133 1.43326 8.37823C1.35809 8.52292 1.35819 8.6952 1.43353 8.8398C1.52043 9.0066 1.81811 9.1223 2.41345 9.3539L9.1715 11.982C9.2923 12.029 9.3527 12.0525 9.4036 12.0888C9.4487 12.1209 9.4881 12.1604 9.5203 12.2055C9.5566 12.2563 9.5801 12.3168 9.6271 12.4376Z" stroke="#D3D190" stroke-opacity="0.96" stroke-width="2" stroke-linecap="round" stroke-linejoin="round"/>
</svg>
