<svg width="40" height="34" viewBox="0 0 40 34" fill="none" xmlns="http://www.w3.org/2000/svg">
<g filter="url(#filter0_d_284_667)">
<path fill-rule="evenodd" clip-rule="evenodd" d="M35.0176 15.5533L23.8967 4.43233C22.9731 3.50878 21.3939 4.16288 21.3939 5.46898V10.7259H21.3903C11.3145 10.7274 6.55926 17.484 4.07666 24.6602C3.56034 26.1526 5.77483 27.2916 7.04611 26.3546C9.96248 24.2053 13.4099 23.02 17.7288 22.6151C18.8858 22.5066 20.1054 22.4541 21.3939 22.4541V27.711C21.3939 29.0171 22.9731 29.6712 23.8967 28.7476L35.0176 17.6266C35.5902 17.0541 35.5902 16.1258 35.0176 15.5533ZM21.3939 14.3909C23.4009 14.3909 25.0309 12.7779 25.0587 10.7776L30.871 16.59L25.0587 22.4024C25.0309 20.4021 23.4009 18.789 21.3939 18.789C17.1336 18.789 13.3614 19.3231 9.99912 20.6091C10.7017 19.5056 11.4954 18.5175 12.3936 17.6756C14.4623 15.7363 17.2705 14.3909 21.3939 14.3909Z" fill="white"/>
</g>
<defs>
<filter id="filter0_d_284_667" x="0.5" y="0.5" width="39.447" height="33.1799" filterUnits="userSpaceOnUse" color-interpolation-filters="sRGB">
<feFlood flood-opacity="0" result="BackgroundImageFix"/>
<feColorMatrix in="SourceAlpha" type="matrix" values="0 0 0 0 0 0 0 0 0 0 0 0 0 0 0 0 0 0 127 0" result="hardAlpha"/>
<feOffset dx="0.5" dy="0.5"/>
<feGaussianBlur stdDeviation="2"/>
<feComposite in2="hardAlpha" operator="out"/>
<feColorMatrix type="matrix" values="0 0 0 0 0 0 0 0 0 0 0 0 0 0 0 0 0 0 0.3 0"/>
<feBlend mode="normal" in2="BackgroundImageFix" result="effect1_dropShadow_284_667"/>
<feBlend mode="normal" in="SourceGraphic" in2="effect1_dropShadow_284_667" result="shape"/>
</filter>
</defs>
</svg>
