<svg width="21" height="21" viewBox="0 0 21 21" fill="none" xmlns="http://www.w3.org/2000/svg">
<path d="M1 10.5H20M1 5.75H5.75M15.25 5.75H20M1 15.25H5.75M15.25 15.25H20M5.75 20V1M15.25 20V1M5.56 20H15.44C17.0362 20 17.8342 20 18.4439 19.6894C18.9802 19.4161 19.4161 18.9802 19.6894 18.4439C20 17.8342 20 17.0362 20 15.44V5.56C20 3.96385 20 3.16577 19.6894 2.55613C19.4161 2.01986 18.9802 1.58387 18.4439 1.31063C17.8342 1 17.0362 1 15.44 1H5.56C3.96385 1 3.16577 1 2.55613 1.31063C2.01986 1.58387 1.58387 2.01986 1.31063 2.55613C1 3.16577 1 3.96385 1 5.56V15.44C1 17.0362 1 17.8342 1.31063 18.4439C1.58387 18.9802 2.01986 19.4161 2.55613 19.6894C3.16577 20 3.96385 20 5.56 20Z" stroke="white" stroke-opacity="0.45" stroke-linecap="round" stroke-linejoin="round"/>
</svg>
