<svg width="45" height="45" viewBox="0 0 45 45" fill="none" xmlns="http://www.w3.org/2000/svg">
<path d="M5.66892 5.7129C4.7197 5.90626 3.69138 6.49512 3.06736 7.18946C2.51365 7.8047 2.03904 8.86817 1.93357 9.71192C1.87205 10.1777 1.84568 14.2734 1.86326 22.0166C1.88962 33.0029 1.89841 33.6445 2.05662 34.1016C2.58396 35.7012 3.68259 36.791 5.27341 37.3184C5.73044 37.4766 6.3281 37.4854 15.0293 37.5117C21.6562 37.5293 24.3984 37.5117 24.6357 37.4414C24.9961 37.3359 25.3125 36.9316 25.3125 36.5801C25.3125 36.2988 25.084 35.8857 24.8467 35.7539C24.6972 35.666 22.6582 35.6309 15.2051 35.5957L5.75681 35.5518L5.31736 35.3145C4.49119 34.875 3.90232 34.0576 3.80564 33.2139L3.7529 32.7832H13.79H23.8359L24.0908 32.5283C24.5302 32.0801 24.4072 31.3242 23.8447 31.0342C23.7041 30.9639 20.8652 30.9375 13.7197 30.9375H3.77927V20.3467C3.77927 9.87012 3.77927 9.75587 3.96384 9.28126C4.19236 8.66602 4.77244 8.05958 5.43162 7.75196L5.93259 7.51466H21.4892C36.3515 7.51466 37.0634 7.52345 37.5117 7.67286C38.1269 7.89259 38.8476 8.56055 39.1201 9.15821L39.331 9.62403L39.375 15.5127C39.4189 20.9443 39.4277 21.4277 39.5771 21.6475C39.8672 22.0957 40.6318 22.1045 41.0273 21.6563L41.2295 21.4277L41.2031 15.3545C41.1767 9.3252 41.1767 9.27247 40.9834 8.7627C40.4736 7.40919 39.4101 6.36329 38.0478 5.8711L37.4853 5.66895L21.7529 5.66016C13.1045 5.65137 5.86228 5.67774 5.66892 5.7129Z" fill="#715557"/>
<path d="M16.6289 12.4893C16.207 12.6123 15.6973 13.1661 15.5654 13.6319C15.4863 13.9219 15.4688 15.4688 15.4863 19.9248L15.5127 25.8223L15.7764 26.2002C16.1543 26.7364 16.6992 27.0088 17.332 26.9649C17.8857 26.9209 17.2793 27.2549 23.9502 23.3965C26.0772 22.1748 27.9141 21.085 28.0195 20.9795C28.3623 20.6631 28.5645 20.1709 28.5645 19.6875C28.5645 19.2041 28.3623 18.712 28.0195 18.3955C27.8525 18.2373 24.5215 16.295 18.958 13.0957C17.7539 12.4102 17.2881 12.2871 16.6289 12.4893ZM22.4385 17.2705C24.6973 18.5713 26.543 19.6612 26.543 19.6875C26.543 19.7227 20.6367 23.168 17.8242 24.7676L17.3145 25.0577V19.6875V14.3174L17.8242 14.6075C18.1055 14.7657 20.1797 15.961 22.4385 17.2705Z" fill="#715557"/>
<path d="M33.5742 23.6074C31.6143 24.0205 29.8125 25.1982 28.6875 26.7803C27.5713 28.3271 27.0176 30.4629 27.2461 32.291C27.4746 34.1719 28.3623 35.9473 29.6719 37.1689C30.3838 37.8369 30.8496 38.1621 31.7461 38.584C32.9502 39.1553 33.6797 39.3135 35.1562 39.3135C36.7031 39.3135 37.4062 39.1553 38.7158 38.4961C40.6582 37.5293 42.0029 35.9736 42.706 33.873C44.042 29.8916 41.9678 25.5146 38.0039 23.9766C37.6348 23.8359 37.0371 23.6602 36.6768 23.5898C35.8594 23.4316 34.3301 23.4404 33.5742 23.6074ZM36.3691 25.4531C38.4346 25.8662 40.1924 27.4131 40.8955 29.4346C41.2383 30.4102 41.3174 31.7197 41.0976 32.7129C40.5967 34.9453 38.8037 36.791 36.6064 37.3184C35.8242 37.5029 34.4971 37.5117 33.7324 37.3271C31.5088 36.791 29.7158 34.9629 29.2236 32.7305C29.0127 31.79 29.0742 30.4365 29.3818 29.4873C30.3135 26.6133 33.3809 24.8467 36.3691 25.4531Z" fill="#715557"/>
<path d="M34.7607 27.2988C34.4355 27.4658 32.2031 29.6631 32.0273 29.9883C31.5878 30.8145 32.4228 31.7021 33.249 31.2803C33.3544 31.2275 33.6093 31.0166 33.8202 30.8232L34.1894 30.4629V32.5898C34.1894 34.875 34.2333 35.165 34.6376 35.4551C34.9013 35.6396 35.4111 35.6396 35.6747 35.4551C36.079 35.165 36.123 34.875 36.123 32.5898V30.4629L36.5009 30.8232C36.9667 31.2715 37.1689 31.377 37.5732 31.377C38.2324 31.377 38.6191 30.6299 38.2851 29.9883C38.1005 29.6367 35.7626 27.3604 35.4814 27.2549C35.1562 27.1318 35.0771 27.1318 34.7607 27.2988Z" fill="#715557"/>
</svg>
